<?xml version="1.0" encoding="utf-8"?>
<!-- Generator: Adobe Illustrator 18.0.0, SVG Export Plug-In . SVG Version: 6.00 Build 0)  -->
<!DOCTYPE svg PUBLIC "-//W3C//DTD SVG 1.1//EN" "http://www.w3.org/Graphics/SVG/1.1/DTD/svg11.dtd">
<svg version="1.1" id="Layer_1" xmlns="http://www.w3.org/2000/svg" xmlns:xlink="http://www.w3.org/1999/xlink" x="0px" y="0px"
	 viewBox="0 0 40 40" enable-background="new 0 0 40 40" xml:space="preserve">
<g>
	<path fill="#FFFFFF" d="M6.2,13.1h27.5c1.3,0,2.3-1,2.3-2.3s-1-2.3-2.3-2.3H6.2C5,8.5,4,9.6,4,10.8S5,13.1,6.2,13.1z M33.8,17.7
		H6.2C5,17.7,4,18.7,4,20s1,2.3,2.3,2.3h27.5c1.3,0,2.3-1,2.3-2.3S35,17.7,33.8,17.7z M33.8,26.9H6.2c-1.3,0-2.3,1-2.3,2.3
		s1,2.3,2.3,2.3h27.5c1.3,0,2.3-1,2.3-2.3S35,26.9,33.8,26.9z"/>
</g>
</svg>
